<svg id="visual" viewBox="0 0 900 600" width="900" height="600" xmlns="http://www.w3.org/2000/svg" xmlns:xlink="http://www.w3.org/1999/xlink" version="1.1"><rect x="0" y="0" width="900" height="600" fill="#2a7857"></rect><path d="M0 231L18.8 225C37.7 219 75.3 207 112.8 210.8C150.3 214.7 187.7 234.3 225.2 238.3C262.7 242.3 300.3 230.7 337.8 216.2C375.3 201.7 412.7 184.3 450.2 181.7C487.7 179 525.3 191 562.8 196.2C600.3 201.3 637.7 199.7 675.2 190C712.7 180.3 750.3 162.7 787.8 172.8C825.3 183 862.7 221 881.3 240L900 259L900 601L881.3 601C862.7 601 825.3 601 787.8 601C750.3 601 712.7 601 675.2 601C637.7 601 600.3 601 562.8 601C525.3 601 487.7 601 450.2 601C412.7 601 375.3 601 337.8 601C300.3 601 262.7 601 225.2 601C187.7 601 150.3 601 112.8 601C75.3 601 37.7 601 18.8 601L0 601Z" fill="#fcf1cf"></path><path d="M0 260L18.8 259.2C37.7 258.3 75.3 256.7 112.8 253.7C150.3 250.7 187.7 246.3 225.2 251.3C262.7 256.3 300.3 270.7 337.8 267.8C375.3 265 412.7 245 450.2 237C487.7 229 525.3 233 562.8 240.5C600.3 248 637.7 259 675.2 266.8C712.7 274.7 750.3 279.3 787.8 273.5C825.3 267.7 862.7 251.3 881.3 243.2L900 235L900 601L881.3 601C862.7 601 825.3 601 787.8 601C750.3 601 712.7 601 675.2 601C637.7 601 600.3 601 562.8 601C525.3 601 487.7 601 450.2 601C412.7 601 375.3 601 337.8 601C300.3 601 262.7 601 225.2 601C187.7 601 150.3 601 112.8 601C75.3 601 37.7 601 18.8 601L0 601Z" fill="#ced1a7"></path><path d="M0 329L18.8 333.7C37.7 338.3 75.3 347.7 112.8 351C150.3 354.3 187.7 351.7 225.2 354.7C262.7 357.7 300.3 366.3 337.8 368.7C375.3 371 412.7 367 450.2 355.3C487.7 343.7 525.3 324.3 562.8 322.8C600.3 321.3 637.7 337.7 675.2 341.8C712.7 346 750.3 338 787.8 333.5C825.3 329 862.7 328 881.3 327.5L900 327L900 601L881.3 601C862.7 601 825.3 601 787.8 601C750.3 601 712.7 601 675.2 601C637.7 601 600.3 601 562.8 601C525.3 601 487.7 601 450.2 601C412.7 601 375.3 601 337.8 601C300.3 601 262.7 601 225.2 601C187.7 601 150.3 601 112.8 601C75.3 601 37.7 601 18.8 601L0 601Z" fill="#9cb386"></path><path d="M0 446L18.8 442C37.7 438 75.3 430 112.8 429.7C150.3 429.3 187.7 436.7 225.2 433.3C262.7 430 300.3 416 337.8 407.8C375.3 399.7 412.7 397.3 450.2 400.5C487.7 403.7 525.3 412.3 562.8 411.5C600.3 410.7 637.7 400.3 675.2 400C712.7 399.7 750.3 409.3 787.8 419.3C825.3 429.3 862.7 439.7 881.3 444.8L900 450L900 601L881.3 601C862.7 601 825.3 601 787.8 601C750.3 601 712.7 601 675.2 601C637.7 601 600.3 601 562.8 601C525.3 601 487.7 601 450.2 601C412.7 601 375.3 601 337.8 601C300.3 601 262.7 601 225.2 601C187.7 601 150.3 601 112.8 601C75.3 601 37.7 601 18.8 601L0 601Z" fill="#67956b"></path><path d="M0 480L18.8 478.8C37.7 477.7 75.3 475.3 112.8 480C150.3 484.7 187.7 496.3 225.2 505.5C262.7 514.7 300.3 521.3 337.8 516.3C375.3 511.3 412.7 494.7 450.2 494.5C487.7 494.3 525.3 510.7 562.8 510.2C600.3 509.7 637.7 492.3 675.2 485.8C712.7 479.3 750.3 483.7 787.8 485.5C825.3 487.3 862.7 486.7 881.3 486.3L900 486L900 601L881.3 601C862.7 601 825.3 601 787.8 601C750.3 601 712.7 601 675.2 601C637.7 601 600.3 601 562.8 601C525.3 601 487.7 601 450.2 601C412.7 601 375.3 601 337.8 601C300.3 601 262.7 601 225.2 601C187.7 601 150.3 601 112.8 601C75.3 601 37.7 601 18.8 601L0 601Z" fill="#2a7857"></path></svg>